<svg width="25" height="25" viewBox="0 0 25 25" fill="none" xmlns="http://www.w3.org/2000/svg">
<path d="M13.9292 16.6925C13.3211 14.1223 13.3356 11.7119 13.9147 9.18528C13.5528 9.2724 13.379 9.27241 13.2487 9.35953C11.1061 10.6374 8.76086 11.1891 6.28528 11.2037C4.85206 11.2182 4.18611 12.0313 4.47565 13.4253C4.6349 14.1804 5.05474 14.5579 5.82202 14.616C6.38662 14.6596 6.95123 14.6451 7.50136 14.7322C7.70404 14.7612 7.87776 15.0371 8.05149 15.1969C7.84881 15.313 7.64613 15.5163 7.42897 15.5308C6.92228 15.5599 6.41558 15.5018 5.8944 15.4873C4.49013 15.4437 3.54912 14.4418 3.53464 12.9752C3.52017 11.4796 4.47565 10.4631 5.87993 10.3324C7.35659 10.1872 8.8622 10.1146 10.2665 9.72255C12.1195 9.21432 13.8568 8.38664 15.1452 6.8184C15.9415 5.86004 16.9838 5.86004 17.7511 6.84745C18.2578 7.50088 18.6632 8.29952 18.8948 9.08364C19.7055 11.9297 19.6621 14.7903 18.6053 17.5928C18.4026 18.13 18.0841 18.6528 17.7077 19.0739C16.8825 19.9887 15.9125 20.0032 15.1452 19.0448C13.9726 17.5928 12.3656 16.8813 10.7008 16.2423C10.0783 15.9955 9.90455 16.1407 9.90455 16.8087C9.90455 18.8996 9.91903 20.9906 9.91903 23.0671C9.91903 24.1852 9.68739 24.3449 8.674 23.9528C5.05473 22.5734 2.59363 20.0903 1.39204 16.4166C1.17488 15.7486 1.08802 15.0226 1.03011 14.3111C0.972204 13.6431 1.01564 12.9461 1.01564 12.2782C1.03011 7.48636 3.62151 4.3644 7.70404 2.30246C9.00697 1.64903 10.3968 1.0682 11.9169 1.01012C14.9136 0.879431 17.4905 2.02657 19.7924 3.76905C21.9784 5.43894 23.2814 7.68965 23.9763 10.3469C24.3527 11.77 24.4395 13.222 24.1934 14.587C23.484 18.4059 21.4862 21.3972 17.9683 23.2704C16.0139 24.3159 13.9292 24.7805 11.7142 24.6063C11.3667 24.5772 10.9324 24.6208 11.0048 24.1416C11.0338 23.9674 11.497 23.735 11.7576 23.7496C14.4793 23.9093 16.9114 23.1687 19.0975 21.5569C25.5253 16.8377 24.5409 6.60059 17.3313 3.20275C13.2053 1.25697 8.54371 1.9104 5.21398 4.93071C1.95664 7.89294 0.798479 12.5976 2.41991 16.8087C3.49121 19.6112 5.46009 21.6295 8.22521 22.8493C8.87668 23.1397 9.0504 23.0235 9.0504 22.2975C9.0504 20.2065 9.03593 18.1155 9.03593 16.0391C9.03593 15.1243 9.33994 14.8629 10.1941 15.1823C11.222 15.5599 12.2064 16.0245 13.2053 16.4602C13.3935 16.5328 13.5672 16.5763 13.9292 16.6925ZM18.5763 12.859C18.5329 12.2346 18.5329 11.5957 18.446 10.9713C18.2723 9.73707 18.0262 8.51733 17.2444 7.50088C16.7522 6.86197 16.1586 6.83292 15.6809 7.48636C15.3479 7.95102 15.1452 8.51733 14.8847 9.02555C14.653 9.4757 14.7833 9.78063 15.2032 10.0565C17.5629 11.6393 17.5919 14.1949 15.2321 15.7341C14.7544 16.0391 14.6675 16.344 14.8847 16.8087C14.986 17.0555 15.0439 17.3314 15.1742 17.5492C15.4927 18.0865 15.7243 18.8125 16.4627 18.798C17.172 18.7835 17.4616 18.101 17.7222 17.5202C18.3881 16.0536 18.5618 14.4708 18.5763 12.859ZM14.3201 12.8735C14.3635 13.4399 14.3635 13.9916 14.4359 14.5434C14.5083 15.0081 14.7688 15.0952 15.1597 14.8048C16.3758 13.8755 16.3758 11.9297 15.1452 11.0149C14.7254 10.71 14.5083 10.8406 14.4503 11.2908C14.378 11.8135 14.3635 12.3508 14.3201 12.8735Z" fill="#848484" stroke="#858383" stroke-width="0.5" stroke-miterlimit="10"/>
<path d="M14.5516 12.9897C14.5951 12.467 14.6095 11.9297 14.6675 11.407C14.7254 10.9568 14.957 10.8261 15.3624 11.1311C16.5784 12.0459 16.5929 13.9916 15.3768 14.9064C14.9859 15.1969 14.7254 15.1097 14.6675 14.6451C14.5951 14.1078 14.5951 13.556 14.5516 12.9897Z" fill="white" stroke="#858383" stroke-width="0.5" stroke-miterlimit="10"/>
<path d="M9.28204 23.5172C9.28204 23.5172 2.37649 21.615 1.39205 14.7177C0.668192 9.56282 3.57808 4.50961 8.4858 2.44767C10.9035 1.43122 13.9147 1.0682 17.3168 2.60739C17.3168 2.60739 26.5532 6.45538 23.1221 17.2007C23.1221 17.2007 20.7334 24.3885 11.497 24.1707" stroke="#858383" stroke-width="0.5" stroke-miterlimit="10"/>
</svg>
