<svg width="23" height="23" viewBox="0 0 23 23" fill="none" xmlns="http://www.w3.org/2000/svg">
<path d="M4.69626 6.37393C4.69626 2.81203 7.48889 0 10.9331 0C14.5636 0 17.3562 2.81203 17.3562 6.46767C17.3562 10.0296 14.4705 12.8416 10.9331 12.8416C7.48889 12.8416 4.69626 9.93584 4.69626 6.37393ZM11.0262 10.8732C13.4465 10.8732 15.4945 8.81103 15.4014 6.37393C15.4014 3.93684 13.5396 2.06216 11.0262 1.87469C8.60595 1.78095 6.55802 3.93684 6.55802 6.37393C6.6511 8.90476 8.69904 10.8732 11.0262 10.8732Z" fill="#858383"/>
<path d="M11.1193 14.1539C12.7018 14.1539 14.2843 14.1539 15.9599 14.1539C19.5903 14.1539 22.1968 16.6848 22.1968 20.4341C22.1968 20.9028 22.1968 21.2777 22.1968 21.6527C22.1968 22.2151 21.9175 22.6838 21.2659 22.6838C20.6143 22.6838 20.335 22.3088 20.335 21.6527C20.335 21.0903 20.335 20.5279 20.335 20.0592C20.335 17.997 18.6595 16.2161 16.7046 16.2161C13.0742 16.1224 9.44376 16.1224 5.72024 16.2161C3.57922 16.2161 1.99673 18.0908 1.99673 20.1529C1.99673 20.7153 1.99673 21.2777 1.99673 21.7464C1.90364 22.3088 1.62437 22.6838 1.06585 22.6838C0.507318 22.6838 0.228055 22.4026 0.134967 21.8401C-0.423561 19.1219 0.786582 16.3098 3.11378 14.9975C3.95157 14.5289 5.06862 14.2477 6.09259 14.1539C7.582 14.0602 9.35067 14.1539 11.1193 14.1539Z" fill="#858383"/>
</svg>
