<svg width="21" height="23" viewBox="0 0 21 23" fill="none" xmlns="http://www.w3.org/2000/svg">
<path d="M17.4815 18.8902C17.4815 17.1366 17.4815 15.5744 17.4815 14.0122C17.4815 11.6211 17.4815 9.2299 17.4815 6.83874C17.4815 3.95342 16.1862 2.24773 13.9502 2.23179C11.6896 2.21585 9.4291 2.23179 7.16857 2.23179C7.00972 2.23179 6.83866 2.23179 6.67981 2.23179C6.17883 2.21585 5.84891 1.89703 5.84891 1.21156C5.83669 0.542039 6.15439 0.207277 6.65537 0.159454C6.75312 0.159454 6.86309 0.159454 6.96085 0.159454C9.34357 0.159454 11.7263 0.159454 14.109 0.159454C17.0294 0.175395 19.0944 2.85349 19.1188 6.67933C19.131 8.70385 19.1188 10.7124 19.1188 12.7369C19.1188 14.7455 19.1188 16.77 19.1188 18.9061C19.3265 18.667 19.4854 18.4757 19.6442 18.3003C19.9986 17.9178 20.3652 17.9496 20.6829 18.3641C21.0128 18.7786 21.0617 19.2887 20.7562 19.7191C19.9497 20.8031 19.1188 21.8393 18.3124 22.8595C17.4815 21.8074 16.6261 20.7871 15.8197 19.7032C15.4898 19.2727 15.5875 18.7626 15.893 18.3482C16.1862 17.9496 16.5406 17.9337 16.895 18.2366C17.066 18.396 17.2126 18.5873 17.4815 18.8902Z" fill="#858383"/>
<path d="M3.47852 3.98526C3.47852 5.73877 3.47852 7.30099 3.47852 8.86321C3.47852 11.2544 3.47852 13.6455 3.47852 16.0367C3.47852 18.922 4.77374 20.6277 7.00983 20.6436C9.27036 20.6596 11.5309 20.6436 13.7914 20.6436C13.9503 20.6436 14.1213 20.6436 14.2802 20.6436C14.7812 20.6596 15.1111 20.9784 15.1111 21.6639C15.1233 22.3334 14.8056 22.6681 14.3046 22.716C14.2069 22.7319 14.0969 22.716 13.9991 22.716C11.6164 22.716 9.23371 22.7319 6.85099 22.716C3.93063 22.7 1.8656 20.0219 1.84117 16.1961C1.82895 14.1716 1.84117 12.163 1.84117 10.1385C1.84117 8.12992 1.84117 6.10541 1.84117 3.96932C1.63344 4.20843 1.47459 4.39972 1.31575 4.57507C0.961392 4.95766 0.59482 4.92578 0.277124 4.51131C-0.052791 4.09684 -0.101667 3.58673 0.20381 3.15632C0.998049 2.05639 1.84117 1.03617 2.64762 0C3.47852 1.05211 4.33386 2.07233 5.14032 3.15632C5.47023 3.58673 5.37248 4.09684 5.067 4.51131C4.77374 4.90984 4.41939 4.92578 4.06504 4.6229C3.89397 4.47943 3.75956 4.28814 3.47852 3.98526Z" fill="#858383"/>
<path d="M13.9733 8.98291H7.98472" stroke="#858383" stroke-width="2" stroke-linecap="round"/>
<path d="M13.9733 13.9734H7.98472" stroke="#858383" stroke-width="2" stroke-linecap="round"/>
</svg>
