<svg width="15" height="14" viewBox="0 0 15 14" fill="none" xmlns="http://www.w3.org/2000/svg">
<g clip-path="url(#clip0_450_2)">
<path d="M4.92154 8.88201e-07L0.754281 5.23887e-07C0.34237 4.87877e-07 0.00535129 0.508358 0.00535124 1.12968L0.00535021 12.8703C0.00535016 13.4916 0.342369 14 0.75428 14L4.92154 14C5.33345 14 5.67047 13.4916 5.67047 12.8703L5.67047 1.12968C5.67047 0.500289 5.33345 9.24211e-07 4.92154 8.88201e-07Z" fill="#44AE49"/>
<path d="M7.18438 1.22651L7.18438 6.71354C7.18438 7.37521 7.53745 7.90778 7.9761 7.90778L14.2083 7.90778C14.6469 7.90778 15 7.37521 15 6.72161L15 1.23458C15 0.572906 14.6469 0.0403409 14.2083 0.0403408L7.97076 0.0403403C7.53745 0.0322707 7.18438 0.572904 7.18438 1.22651Z" fill="#44AE49"/>
<path d="M7.15764 10.498L7.15764 12.7654C7.15764 13.3303 7.46256 13.7902 7.83703 13.7902L10.8755 13.7902C11.25 13.7902 11.5549 13.3303 11.5549 12.7654L11.5549 10.498C11.5549 9.93315 11.25 9.4732 10.8755 9.4732L7.83168 9.4732C7.45721 9.4732 7.15764 9.93315 7.15764 10.498Z" fill="#44AE49"/>
</g>
<defs>
<clipPath id="clip0_450_2">
<rect width="15" height="14" fill="white" transform="translate(15 14) rotate(-180)"/>
</clipPath>
</defs>
</svg>
